<?xml version="1.0" standalone="no"?>
<!DOCTYPE svg PUBLIC "-//W3C//DTD SVG 20010904//EN"
 "http://www.w3.org/TR/2001/REC-SVG-20010904/DTD/svg10.dtd">
<svg version="1.0" xmlns="http://www.w3.org/2000/svg"
 width="460.000000pt" height="460.000000pt" viewBox="0 0 460.000000 460.000000"
 preserveAspectRatio="xMidYMid meet">
<metadata>
Created by potrace 1.14, written by Peter Selinger 2001-2017
</metadata>
<g transform="translate(0.000000,460.000000) scale(0.100000,-0.100000)"
fill="#000000" stroke="none">
<path d="M0 2300 l0 -2300 2300 0 2300 0 0 2300 0 2300 -2300 0 -2300 0 0
-2300z m2810 1815 c0 -24 2 -25 65 -25 58 0 65 -2 65 -20 0 -17 7 -20 50 -20
47 0 50 -2 50 -25 0 -23 4 -25 45 -25 38 0 45 -3 45 -20 0 -17 7 -20 45 -20
41 0 45 -2 45 -25 0 -23 4 -25 45 -25 41 0 45 -2 45 -25 0 -20 5 -25 25 -25
18 0 25 -5 25 -20 0 -17 7 -20 45 -20 41 0 45 -2 45 -25 0 -20 5 -25 25 -25
18 0 25 -5 25 -20 0 -13 7 -20 20 -20 15 0 20 -7 20 -25 0 -20 5 -25 25 -25
20 0 25 -5 25 -25 0 -18 5 -25 20 -25 13 0 20 -7 20 -20 0 -15 7 -20 25 -20
20 0 25 -5 25 -25 0 -20 5 -25 25 -25 18 0 25 -5 25 -20 0 -13 7 -20 20 -20
15 0 20 -7 20 -25 0 -20 5 -25 25 -25 23 0 25 -4 25 -45 0 -38 3 -45 20 -45
15 0 20 -7 20 -25 0 -20 5 -25 25 -25 23 0 25 -4 25 -45 0 -41 2 -45 25 -45
23 0 25 -4 25 -45 0 -38 3 -45 20 -45 17 0 20 -7 20 -45 0 -41 2 -45 25 -45
23 0 25 -3 25 -50 0 -43 3 -50 20 -50 18 0 20 -7 20 -65 0 -63 1 -65 25 -65
l25 0 0 -115 0 -115 25 0 25 0 0 -300 0 -300 -25 0 -25 0 0 -115 0 -115 -25 0
c-24 0 -25 -2 -25 -70 0 -63 -2 -70 -20 -70 -17 0 -20 -7 -20 -45 0 -41 -2
-45 -25 -45 -23 0 -25 -4 -25 -45 0 -38 -3 -45 -20 -45 -17 0 -20 -7 -20 -50
0 -47 -2 -50 -25 -50 -23 0 -25 -4 -25 -45 0 -41 -2 -45 -25 -45 -18 0 -25 -5
-25 -20 0 -13 -7 -20 -20 -20 -17 0 -20 -7 -20 -50 0 -47 -2 -50 -25 -50 -18
0 -25 -5 -25 -20 0 -13 -7 -20 -20 -20 -15 0 -20 -7 -20 -25 0 -20 -5 -25 -25
-25 -18 0 -25 -5 -25 -20 0 -15 -7 -20 -25 -20 -20 0 -25 -5 -25 -25 0 -18 -5
-25 -20 -25 -15 0 -20 -7 -20 -25 0 -20 -5 -25 -25 -25 -18 0 -25 -5 -25 -20
0 -13 -7 -20 -20 -20 -15 0 -20 -7 -20 -25 0 -20 -5 -25 -25 -25 -18 0 -25 -5
-25 -20 0 -17 -7 -20 -45 -20 -41 0 -45 -2 -45 -25 0 -20 -5 -25 -25 -25 -20
0 -25 -5 -25 -25 0 -23 -4 -25 -45 -25 -38 0 -45 -3 -45 -20 0 -17 -7 -20 -45
-20 -41 0 -45 -2 -45 -25 0 -23 -4 -25 -45 -25 -38 0 -45 -3 -45 -20 0 -17 -7
-20 -50 -20 -47 0 -50 -2 -50 -25 0 -24 -2 -25 -65 -25 -63 0 -65 -1 -65 -25
l0 -25 -115 0 c-108 0 -115 -1 -115 -20 0 -20 -7 -20 -300 -20 l-300 0 0 45 0
45 -115 0 -115 0 0 25 c0 24 -2 25 -70 25 -63 0 -70 2 -70 20 0 17 -7 20 -45
20 -41 0 -45 2 -45 25 0 23 -4 25 -45 25 -38 0 -45 3 -45 20 0 17 -7 20 -50
20 -47 0 -50 2 -50 25 0 23 -4 25 -45 25 -41 0 -45 2 -45 25 0 18 -5 25 -20
25 -13 0 -20 7 -20 20 0 17 -7 20 -50 20 -47 0 -50 2 -50 25 0 18 -5 25 -20
25 -13 0 -20 7 -20 20 0 15 -7 20 -25 20 -20 0 -25 5 -25 25 0 18 -5 25 -20
25 -15 0 -20 7 -20 25 0 20 -5 25 -25 25 -18 0 -25 5 -25 20 0 15 -7 20 -25
20 -20 0 -25 5 -25 25 0 18 -5 25 -20 25 -13 0 -20 7 -20 20 0 15 -7 20 -25
20 -23 0 -25 3 -25 50 0 43 -3 50 -20 50 -13 0 -20 7 -20 20 0 15 -7 20 -25
20 -23 0 -25 4 -25 45 0 41 -2 45 -25 45 -23 0 -25 3 -25 50 0 43 -3 50 -20
50 -17 0 -20 7 -20 45 0 41 -2 45 -25 45 -23 0 -25 4 -25 45 0 38 -3 45 -20
45 -18 0 -20 7 -20 70 0 68 -1 70 -25 70 l-25 0 0 115 0 115 -25 0 -25 0 0
300 0 300 25 0 25 0 0 115 0 115 25 0 c24 0 25 2 25 65 0 58 2 65 20 65 17 0
20 7 20 50 0 47 2 50 25 50 23 0 25 4 25 45 0 38 3 45 20 45 17 0 20 7 20 45
0 41 2 45 25 45 23 0 25 4 25 45 0 41 2 45 25 45 20 0 25 5 25 25 0 18 5 25
20 25 17 0 20 7 20 45 0 41 2 45 25 45 20 0 25 5 25 25 0 18 5 25 20 25 13 0
20 7 20 20 0 15 7 20 25 20 20 0 25 5 25 25 0 20 5 25 25 25 18 0 25 5 25 20
0 13 7 20 20 20 15 0 20 7 20 25 0 20 5 25 25 25 20 0 25 5 25 25 0 18 5 25
20 25 13 0 20 7 20 20 0 17 7 20 50 20 47 0 50 2 50 25 0 23 4 25 45 25 38 0
45 3 45 20 0 13 7 20 20 20 15 0 20 7 20 25 0 23 3 25 50 25 47 0 50 2 50 25
0 23 4 25 45 25 38 0 45 3 45 20 0 17 7 20 45 20 41 0 45 2 45 25 0 24 2 25
70 25 63 0 70 2 70 20 0 19 7 20 115 20 l115 0 0 25 0 25 415 0 415 0 0 -25z"/>
<path d="M2070 3885 c0 -25 -1 -25 -90 -25 -83 0 -90 -1 -90 -20 0 -17 -7 -20
-50 -20 -47 0 -50 -2 -50 -25 0 -23 -4 -25 -45 -25 -38 0 -45 -3 -45 -20 0
-17 -7 -20 -45 -20 -41 0 -45 -2 -45 -25 0 -20 -5 -25 -25 -25 -20 0 -25 -5
-25 -25 0 -18 -5 -25 -20 -25 -13 0 -20 -7 -20 -20 0 -15 -7 -20 -25 -20 -20
0 -25 -5 -25 -25 0 -18 -5 -25 -20 -25 -13 0 -20 -7 -20 -20 0 -15 -7 -20 -25
-20 -20 0 -25 -5 -25 -25 0 -20 -5 -25 -25 -25 -20 0 -25 -5 -25 -25 0 -18 -5
-25 -20 -25 -17 0 -20 -7 -20 -45 0 -41 -2 -45 -25 -45 -23 0 -25 -4 -25 -45
0 -38 -3 -45 -20 -45 -18 0 -20 -7 -20 -70 0 -68 -1 -70 -25 -70 l-25 0 0
-230 0 -230 -25 0 c-18 0 -25 -5 -25 -20 0 -13 -7 -20 -20 -20 -17 0 -20 -7
-20 -50 0 -47 -2 -50 -25 -50 -24 0 -25 -2 -25 -65 0 -58 -2 -65 -20 -65 -15
0 -20 -7 -20 -25 0 -20 -5 -25 -25 -25 -20 0 -25 -5 -25 -25 0 -20 -5 -25 -25
-25 -18 0 -25 -5 -25 -20 0 -13 -7 -20 -20 -20 -17 0 -20 -7 -20 -45 0 -41 -2
-45 -25 -45 -20 0 -25 -5 -25 -25 0 -18 -5 -25 -20 -25 -19 0 -20 -7 -20 -140
l0 -140 45 0 c38 0 45 -3 45 -20 0 -19 7 -20 90 -20 83 0 90 1 90 20 0 15 7
20 25 20 l25 0 0 -160 c0 -153 1 -160 20 -160 19 0 20 -7 20 -135 0 -128 -1
-135 -20 -135 -15 0 -20 -7 -20 -25 0 -18 5 -25 20 -25 15 0 20 -7 20 -25 0
-23 3 -25 50 -25 47 0 50 2 50 25 0 25 1 25 90 25 89 0 90 0 90 25 0 23 4 25
45 25 38 0 45 3 45 20 0 15 7 20 25 20 20 0 25 5 25 25 0 18 5 25 20 25 13 0
20 7 20 20 0 15 7 20 25 20 20 0 25 5 25 25 0 20 5 25 25 25 23 0 25 4 25 45
0 38 3 45 20 45 13 0 20 -7 20 -20 0 -15 7 -20 25 -20 20 0 25 -5 25 -25 0
-18 5 -25 20 -25 15 0 20 -7 20 -25 0 -20 5 -25 25 -25 18 0 25 -5 25 -20 0
-15 7 -20 25 -20 20 0 25 -5 25 -25 0 -23 4 -25 45 -25 38 0 45 -3 45 -20 0
-17 7 -20 45 -20 41 0 45 -2 45 -25 0 -20 5 -25 25 -25 20 0 25 -5 25 -25 0
-24 2 -25 65 -25 58 0 65 -2 65 -20 0 -17 7 -20 50 -20 47 0 50 -2 50 -25 0
-23 4 -25 45 -25 38 0 45 -3 45 -20 0 -19 7 -20 90 -20 89 0 90 0 90 -25 l0
-25 160 0 160 0 0 25 c0 23 3 25 50 25 43 0 50 3 50 20 0 17 7 20 45 20 l45 0
0 45 c0 38 3 45 20 45 15 0 20 7 20 25 0 20 5 25 25 25 l25 0 0 115 0 115 25
0 c24 0 25 2 25 70 0 63 2 70 20 70 19 0 20 7 20 90 l0 90 45 0 45 0 0 70 c0
63 -2 70 -20 70 -17 0 -20 7 -20 45 0 38 3 45 20 45 19 0 20 7 20 255 0 248
-1 255 -20 255 -19 0 -20 7 -20 160 l0 160 70 0 c68 0 70 1 70 25 0 25 0 25
-95 25 l-95 0 0 115 c0 108 -1 115 -20 115 -13 0 -20 7 -20 20 0 13 7 20 20
20 18 0 20 7 20 70 0 63 -2 70 -20 70 -17 0 -20 7 -20 45 0 41 -2 45 -25 45
-23 0 -25 4 -25 45 0 41 -2 45 -25 45 -20 0 -25 5 -25 25 0 18 -5 25 -20 25
-15 0 -20 7 -20 25 0 20 -5 25 -25 25 -18 0 -25 5 -25 20 0 13 -7 20 -20 20
-15 0 -20 7 -20 25 0 20 -5 25 -25 25 -18 0 -25 5 -25 20 0 15 -7 20 -25 20
-20 0 -25 5 -25 25 0 18 -5 25 -20 25 -15 0 -20 7 -20 25 0 20 -5 25 -25 25
-18 0 -25 5 -25 20 0 17 -7 20 -45 20 -41 0 -45 2 -45 25 0 23 -4 25 -45 25
-38 0 -45 3 -45 20 0 18 -7 20 -70 20 -68 0 -70 1 -70 25 l0 25 -230 0 -230 0
0 -25z m600 -90 c0 -23 4 -25 45 -25 38 0 45 -3 45 -20 0 -17 7 -20 45 -20 41
0 45 -2 45 -25 0 -20 5 -25 25 -25 20 0 25 -5 25 -25 0 -18 5 -25 20 -25 13 0
20 -7 20 -20 0 -15 7 -20 25 -20 20 0 25 -5 25 -25 0 -20 5 -25 25 -25 18 0
25 -5 25 -20 0 -13 7 -20 20 -20 15 0 20 -7 20 -25 0 -20 5 -25 25 -25 23 0
25 -4 25 -45 0 -38 3 -45 20 -45 15 0 20 -7 20 -25 0 -20 5 -25 25 -25 23 0
25 -4 25 -45 0 -41 2 -45 25 -45 24 0 25 -2 25 -70 0 -68 -1 -70 -25 -70 -23
0 -25 -4 -25 -45 0 -41 2 -45 25 -45 25 0 25 -1 25 -90 l0 -90 -95 0 c-95 0
-95 0 -95 -25 0 -23 -4 -25 -45 -25 -41 0 -45 -2 -45 -25 0 -25 1 -25 90 -25
89 0 90 0 90 25 0 24 2 25 70 25 l70 0 0 -160 0 -160 25 0 25 0 0 -230 0 -230
-25 0 c-20 0 -25 -5 -25 -25 0 -18 -5 -25 -20 -25 -15 0 -20 7 -20 25 0 23 -3
25 -50 25 l-50 0 0 70 c0 63 -2 70 -20 70 -18 0 -20 -7 -20 -70 l0 -70 -45 0
c-41 0 -45 -2 -45 -25 0 -25 0 -25 -95 -25 -95 0 -95 0 -95 25 l0 25 -185 0
-185 0 0 -25 c0 -23 -4 -25 -45 -25 -38 0 -45 -3 -45 -20 0 -13 -7 -20 -20
-20 -15 0 -20 -7 -20 -25 0 -20 -5 -25 -25 -25 -20 0 -25 -5 -25 -25 0 -20 -5
-25 -25 -25 -18 0 -25 -5 -25 -20 0 -13 -7 -20 -20 -20 -17 0 -20 -7 -20 -45
0 -41 -2 -45 -25 -45 -25 0 -25 0 -25 -95 0 -88 -1 -95 -20 -95 -13 0 -20 -7
-20 -20 0 -17 -7 -20 -50 -20 -43 0 -50 3 -50 20 0 13 -7 20 -20 20 -15 0 -20
7 -20 25 0 23 -4 25 -45 25 -38 0 -45 3 -45 20 0 15 -7 20 -25 20 -20 0 -25 5
-25 25 0 20 -5 25 -25 25 -20 0 -25 5 -25 25 0 18 -5 25 -20 25 -13 0 -20 7
-20 20 0 15 -7 20 -25 20 -23 0 -25 4 -25 45 0 38 -3 45 -20 45 -15 0 -20 7
-20 25 0 20 -5 25 -25 25 -20 0 -25 -5 -25 -25 0 -20 -5 -25 -25 -25 -18 0
-25 -5 -25 -20 0 -18 -7 -20 -65 -20 -58 0 -65 2 -65 20 0 15 -7 20 -25 20
-20 0 -25 5 -25 25 0 20 -5 25 -25 25 -24 0 -25 2 -25 70 0 63 -2 70 -20 70
-13 0 -20 7 -20 20 0 15 -7 20 -25 20 -20 0 -25 5 -25 25 0 18 -5 25 -20 25
-15 0 -20 7 -20 25 0 20 -5 25 -25 25 -23 0 -25 4 -25 45 0 41 -2 45 -25 45
-23 0 -25 4 -25 45 0 38 -3 45 -20 45 -19 0 -20 7 -20 90 0 83 1 90 20 90 15
0 20 7 20 25 0 20 5 25 25 25 20 0 25 5 25 25 l0 25 115 0 115 0 0 -25 c0 -20
5 -25 25 -25 20 0 25 -5 25 -25 0 -18 5 -25 20 -25 17 0 20 -7 20 -45 0 -41 2
-45 25 -45 24 0 25 -2 25 -70 0 -63 2 -70 20 -70 17 0 20 7 20 50 0 47 2 50
25 50 18 0 25 5 25 20 0 15 7 20 25 20 20 0 25 5 25 25 0 18 5 25 20 25 13 0
20 7 20 20 0 15 7 20 25 20 23 0 25 3 25 50 0 43 3 50 20 50 19 0 20 7 20 135
l0 135 25 0 c23 0 25 4 25 45 l0 45 70 0 c68 0 70 1 70 25 0 24 2 25 70 25 68
0 70 1 70 25 0 25 1 25 90 25 83 0 90 1 90 20 0 19 7 20 185 20 l185 0 0 25
c0 25 0 25 -95 25 -88 0 -95 1 -95 20 0 19 7 20 95 20 95 0 95 0 95 25 l0 25
135 0 135 0 0 -25 c0 -25 0 -25 95 -25 l95 0 0 50 c0 47 -2 50 -25 50 -18 0
-25 5 -25 20 0 13 -7 20 -20 20 -17 0 -20 7 -20 45 0 41 -2 45 -25 45 -20 0
-25 5 -25 25 l0 25 -255 0 -255 0 0 -25 c0 -24 -2 -25 -65 -25 l-65 0 0 -90
c0 -83 1 -90 20 -90 15 0 20 -7 20 -25 0 -23 -4 -25 -45 -25 -38 0 -45 -3 -45
-20 0 -19 -7 -20 -90 -20 -89 0 -90 0 -90 -25 0 -24 -2 -25 -70 -25 -63 0 -70
-2 -70 -20 0 -18 -7 -20 -70 -20 -68 0 -70 -1 -70 -25 0 -24 -2 -25 -70 -25
-68 0 -70 -1 -70 -25 0 -18 -5 -25 -20 -25 -13 0 -20 -7 -20 -20 0 -18 -7 -20
-70 -20 l-70 0 0 -45 c0 -41 -2 -45 -25 -45 -20 0 -25 -5 -25 -25 0 -24 -2
-25 -70 -25 -68 0 -70 1 -70 25 0 18 -5 25 -20 25 -13 0 -20 7 -20 20 0 15 -7
20 -25 20 l-25 0 0 115 0 115 25 0 c24 0 25 2 25 70 0 63 2 70 20 70 17 0 20
7 20 45 0 41 2 45 25 45 23 0 25 4 25 45 0 41 2 45 25 45 20 0 25 5 25 25 0
18 5 25 20 25 15 0 20 7 20 25 0 20 5 25 25 25 18 0 25 5 25 20 0 13 7 20 20
20 15 0 20 7 20 25 0 23 3 25 50 25 43 0 50 3 50 20 0 13 7 20 20 20 15 0 20
7 20 25 0 23 4 25 45 25 41 0 45 2 45 25 0 23 3 25 50 25 43 0 50 3 50 20 0
19 7 20 90 20 89 0 90 0 90 25 l0 25 300 0 300 0 0 -25z m640 -2070 c0 -18 -5
-25 -20 -25 -13 0 -20 -7 -20 -20 0 -17 -7 -20 -50 -20 -47 0 -50 -2 -50 -25
0 -25 -1 -25 -90 -25 -89 0 -90 0 -90 -25 l0 -25 -275 0 c-268 0 -275 0 -275
-20 0 -20 7 -20 300 -20 293 0 300 0 300 20 0 19 7 20 90 20 89 0 90 0 90 25
0 20 5 25 25 25 23 0 25 -4 25 -45 0 -41 -2 -45 -25 -45 -23 0 -25 -4 -25 -45
0 -41 -2 -45 -25 -45 -23 0 -25 -3 -25 -50 0 -43 -3 -50 -20 -50 -15 0 -20 7
-20 25 0 20 -5 25 -25 25 -23 0 -25 4 -25 45 l0 45 -70 0 c-63 0 -70 -2 -70
-20 0 -19 -7 -20 -90 -20 l-90 0 0 -70 0 -70 -45 0 c-41 0 -45 -2 -45 -25 0
-25 0 -25 -95 -25 -95 0 -95 0 -95 25 0 18 -5 25 -20 25 -13 0 -20 7 -20 20 0
15 -7 20 -25 20 -20 0 -25 5 -25 25 0 18 -5 25 -20 25 -17 0 -20 7 -20 45 0
41 -2 45 -25 45 -25 0 -25 0 -25 95 l0 95 70 0 c63 0 70 2 70 20 0 19 7 20
230 20 l230 0 0 25 0 25 205 0 205 0 0 -25z"/>
<path d="M2670 3150 c0 -19 7 -20 90 -20 89 0 90 0 90 -25 l0 -25 185 0 185 0
0 25 0 25 -185 0 c-178 0 -185 1 -185 20 0 19 -7 20 -90 20 -83 0 -90 -1 -90
-20z"/>
<path d="M2440 2735 l0 -25 -210 0 c-203 0 -210 -1 -210 -20 0 -19 7 -20 230
-20 223 0 230 1 230 20 0 18 7 20 70 20 68 0 70 1 70 25 0 25 -1 25 -90 25
-89 0 -90 0 -90 -25z"/>
<path d="M2900 2435 c0 -38 3 -45 20 -45 17 0 20 -7 20 -45 0 -41 2 -45 25
-45 20 0 25 -5 25 -25 0 -20 5 -25 25 -25 23 0 25 -4 25 -45 0 -38 3 -45 20
-45 13 0 20 -7 20 -20 0 -15 7 -20 25 -20 18 0 25 5 25 20 0 15 -7 20 -25 20
-23 0 -25 4 -25 45 0 38 -3 45 -20 45 -15 0 -20 7 -20 25 0 20 -5 25 -25 25
-23 0 -25 4 -25 45 0 41 -2 45 -25 45 -23 0 -25 4 -25 45 0 38 -3 45 -20 45
-17 0 -20 -7 -20 -45z"/>
<path d="M3220 2300 l0 -180 25 0 25 0 0 180 0 180 -25 0 -25 0 0 -180z"/>
<path d="M2440 2205 c0 -178 1 -185 20 -185 19 0 20 7 20 185 0 178 -1 185
-20 185 -19 0 -20 -7 -20 -185z"/>
<path d="M1430 2000 c0 -15 -7 -20 -25 -20 -23 0 -25 -4 -25 -45 0 -41 2 -45
25 -45 20 0 25 -5 25 -25 0 -18 5 -25 20 -25 15 0 20 -7 20 -25 0 -20 5 -25
25 -25 20 0 25 5 25 25 0 18 5 25 20 25 15 0 20 7 20 25 0 20 5 25 25 25 23 0
25 4 25 45 0 41 -2 45 -25 45 -18 0 -25 5 -25 20 0 18 -7 20 -65 20 -58 0 -65
-2 -65 -20z m130 -45 c0 -18 -5 -25 -20 -25 -13 0 -20 -7 -20 -20 0 -15 -7
-20 -25 -20 -18 0 -25 5 -25 20 0 15 7 20 25 20 20 0 25 5 25 25 0 18 5 25 20
25 15 0 20 -7 20 -25z"/>
<path d="M2390 1585 c0 -20 5 -25 25 -25 20 0 25 5 25 25 0 20 -5 25 -25 25
-20 0 -25 -5 -25 -25z"/>
</g>
</svg>
